<svg width="12" height="16" viewBox="0 0 12 16" fill="none" xmlns="http://www.w3.org/2000/svg">
<path d="M10 1C10.2652 1 10.5196 1.10536 10.7071 1.29289C10.8946 1.48043 11 1.73478 11 2V14C11 14.2652 10.8946 14.5196 10.7071 14.7071C10.5196 14.8946 10.2652 15 10 15H2C1.73478 15 1.48043 14.8946 1.29289 14.7071C1.10536 14.5196 1 14.2652 1 14V2C1 1.73478 1.10536 1.48043 1.29289 1.29289C1.48043 1.10536 1.73478 1 2 1H10ZM2 0C1.46957 0 0.960859 0.210714 0.585786 0.585786C0.210714 0.960859 0 1.46957 0 2V14C0 14.5304 0.210714 15.0391 0.585786 15.4142C0.960859 15.7893 1.46957 16 2 16H10C10.5304 16 11.0391 15.7893 11.4142 15.4142C11.7893 15.0391 12 14.5304 12 14V2C12 1.46957 11.7893 0.960859 11.4142 0.585786C11.0391 0.210714 10.5304 0 10 0L2 0Z" fill="#333333"/>
<path d="M2 2.5C2 2.36739 2.05268 2.24021 2.14645 2.14645C2.24021 2.05268 2.36739 2 2.5 2H9.5C9.63261 2 9.75979 2.05268 9.85355 2.14645C9.94732 2.24021 10 2.36739 10 2.5V4.5C10 4.63261 9.94732 4.75979 9.85355 4.85355C9.75979 4.94732 9.63261 5 9.5 5H2.5C2.36739 5 2.24021 4.94732 2.14645 4.85355C2.05268 4.75979 2 4.63261 2 4.5V2.5ZM2 6.5C2 6.36739 2.05268 6.24021 2.14645 6.14645C2.24021 6.05268 2.36739 6 2.5 6H3.5C3.63261 6 3.75979 6.05268 3.85355 6.14645C3.94732 6.24021 4 6.36739 4 6.5V7.5C4 7.63261 3.94732 7.75979 3.85355 7.85355C3.75979 7.94732 3.63261 8 3.5 8H2.5C2.36739 8 2.24021 7.94732 2.14645 7.85355C2.05268 7.75979 2 7.63261 2 7.5V6.5ZM2 9.5C2 9.36739 2.05268 9.24021 2.14645 9.14645C2.24021 9.05268 2.36739 9 2.5 9H3.5C3.63261 9 3.75979 9.05268 3.85355 9.14645C3.94732 9.24021 4 9.36739 4 9.5V10.5C4 10.6326 3.94732 10.7598 3.85355 10.8536C3.75979 10.9473 3.63261 11 3.5 11H2.5C2.36739 11 2.24021 10.9473 2.14645 10.8536C2.05268 10.7598 2 10.6326 2 10.5V9.5ZM2 12.5C2 12.3674 2.05268 12.2402 2.14645 12.1464C2.24021 12.0527 2.36739 12 2.5 12H3.5C3.63261 12 3.75979 12.0527 3.85355 12.1464C3.94732 12.2402 4 12.3674 4 12.5V13.5C4 13.6326 3.94732 13.7598 3.85355 13.8536C3.75979 13.9473 3.63261 14 3.5 14H2.5C2.36739 14 2.24021 13.9473 2.14645 13.8536C2.05268 13.7598 2 13.6326 2 13.5V12.5ZM5 6.5C5 6.36739 5.05268 6.24021 5.14645 6.14645C5.24021 6.05268 5.36739 6 5.5 6H6.5C6.63261 6 6.75979 6.05268 6.85355 6.14645C6.94732 6.24021 7 6.36739 7 6.5V7.5C7 7.63261 6.94732 7.75979 6.85355 7.85355C6.75979 7.94732 6.63261 8 6.5 8H5.5C5.36739 8 5.24021 7.94732 5.14645 7.85355C5.05268 7.75979 5 7.63261 5 7.5V6.5ZM5 9.5C5 9.36739 5.05268 9.24021 5.14645 9.14645C5.24021 9.05268 5.36739 9 5.5 9H6.5C6.63261 9 6.75979 9.05268 6.85355 9.14645C6.94732 9.24021 7 9.36739 7 9.5V10.5C7 10.6326 6.94732 10.7598 6.85355 10.8536C6.75979 10.9473 6.63261 11 6.5 11H5.5C5.36739 11 5.24021 10.9473 5.14645 10.8536C5.05268 10.7598 5 10.6326 5 10.5V9.5ZM5 12.5C5 12.3674 5.05268 12.2402 5.14645 12.1464C5.24021 12.0527 5.36739 12 5.5 12H6.5C6.63261 12 6.75979 12.0527 6.85355 12.1464C6.94732 12.2402 7 12.3674 7 12.5V13.5C7 13.6326 6.94732 13.7598 6.85355 13.8536C6.75979 13.9473 6.63261 14 6.5 14H5.5C5.36739 14 5.24021 13.9473 5.14645 13.8536C5.05268 13.7598 5 13.6326 5 13.5V12.5ZM8 6.5C8 6.36739 8.05268 6.24021 8.14645 6.14645C8.24021 6.05268 8.36739 6 8.5 6H9.5C9.63261 6 9.75979 6.05268 9.85355 6.14645C9.94732 6.24021 10 6.36739 10 6.5V7.5C10 7.63261 9.94732 7.75979 9.85355 7.85355C9.75979 7.94732 9.63261 8 9.5 8H8.5C8.36739 8 8.24021 7.94732 8.14645 7.85355C8.05268 7.75979 8 7.63261 8 7.5V6.5ZM8 9.5C8 9.36739 8.05268 9.24021 8.14645 9.14645C8.24021 9.05268 8.36739 9 8.5 9H9.5C9.63261 9 9.75979 9.05268 9.85355 9.14645C9.94732 9.24021 10 9.36739 10 9.5V13.5C10 13.6326 9.94732 13.7598 9.85355 13.8536C9.75979 13.9473 9.63261 14 9.5 14H8.5C8.36739 14 8.24021 13.9473 8.14645 13.8536C8.05268 13.7598 8 13.6326 8 13.5V9.5Z" fill="#333333"/>
</svg>
