<svg width="19" height="24" viewBox="0 0 19 24" fill="none" xmlns="http://www.w3.org/2000/svg">
<path d="M1.35714 21.75C1.35714 22.3467 1.57162 22.919 1.95339 23.341C2.33516 23.7629 2.85295 24 3.39286 24H15.6071C16.147 24 16.6648 23.7629 17.0466 23.341C17.4284 22.919 17.6429 22.3467 17.6429 21.75V6.00001H1.35714V21.75ZM12.8929 9.75C12.8929 9.55109 12.9643 9.36033 13.0916 9.21967C13.2189 9.07902 13.3915 9.00001 13.5714 9.00001C13.7514 9.00001 13.924 9.07902 14.0513 9.21967C14.1785 9.36033 14.25 9.55109 14.25 9.75V20.25C14.25 20.4489 14.1785 20.6397 14.0513 20.7803C13.924 20.921 13.7514 21 13.5714 21C13.3915 21 13.2189 20.921 13.0916 20.7803C12.9643 20.6397 12.8929 20.4489 12.8929 20.25V9.75ZM8.82143 9.75C8.82143 9.55109 8.89292 9.36033 9.02018 9.21967C9.14743 9.07902 9.32003 9.00001 9.5 9.00001C9.67997 9.00001 9.85257 9.07902 9.97982 9.21967C10.1071 9.36033 10.1786 9.55109 10.1786 9.75V20.25C10.1786 20.4489 10.1071 20.6397 9.97982 20.7803C9.85257 20.921 9.67997 21 9.5 21C9.32003 21 9.14743 20.921 9.02018 20.7803C8.89292 20.6397 8.82143 20.4489 8.82143 20.25V9.75ZM4.75 9.75C4.75 9.55109 4.82149 9.36033 4.94875 9.21967C5.07601 9.07902 5.2486 9.00001 5.42857 9.00001C5.60854 9.00001 5.78114 9.07902 5.90839 9.21967C6.03565 9.36033 6.10714 9.55109 6.10714 9.75V20.25C6.10714 20.4489 6.03565 20.6397 5.90839 20.7803C5.78114 20.921 5.60854 21 5.42857 21C5.2486 21 5.07601 20.921 4.94875 20.7803C4.82149 20.6397 4.75 20.4489 4.75 20.25V9.75ZM18.3214 1.50001H13.2321L12.8335 0.623446C12.749 0.436046 12.6189 0.278409 12.4579 0.16827C12.2968 0.0581305 12.1111 -0.000141936 11.9217 8.21846e-06H7.07411C6.88512 -0.000794775 6.69974 0.0572604 6.53923 0.167522C6.37871 0.277784 6.24954 0.435793 6.16652 0.623446L5.76786 1.50001H0.678571C0.498603 1.50001 0.326006 1.57903 0.198749 1.71968C0.0714922 1.86033 0 2.0511 0 2.25001L0 3.75001C0 3.94892 0.0714922 4.13968 0.198749 4.28034C0.326006 4.42099 0.498603 4.50001 0.678571 4.50001H18.3214C18.5014 4.50001 18.674 4.42099 18.8013 4.28034C18.9285 4.13968 19 3.94892 19 3.75001V2.25001C19 2.0511 18.9285 1.86033 18.8013 1.71968C18.674 1.57903 18.5014 1.50001 18.3214 1.50001V1.50001Z" fill="#CC6464"/>
</svg>
